<svg xmlns="http://www.w3.org/2000/svg" width="1280" height="430" viewBox="0 0 1280 430" role="img" aria-label="Workflow sequence">
  <defs>
    <style>
      .bg { fill: #ffffff; }
      .node { fill: #f7f8fa; stroke: #d6dbe5; stroke-width: 1.4; rx: 12; }
      .txt { font: 600 14px Inter, Arial, sans-serif; fill: #374151; }
      .arrow { stroke: #6b7280; stroke-width: 2; marker-end: url(#m); }
      .title { font: 700 20px Inter, Arial, sans-serif; fill: #111827; }
    </style>
    <marker id="m" markerWidth="10" markerHeight="10" refX="8" refY="3" orient="auto">
      <path d="M0,0 L0,6 L9,3 z" fill="#6b7280" />
    </marker>
  </defs>

  <rect class="bg" x="0" y="0" width="1280" height="430"/>
  <text class="title" x="44" y="48">Graph Workflow Sequence</text>

  <rect class="node" x="44" y="110" width="108" height="56"/><text class="txt" x="72" y="144">START</text>
  <rect class="node" x="186" y="110" width="130" height="56"/><text class="txt" x="220" y="144">role_play</text>
  <rect class="node" x="350" y="110" width="120" height="56"/><text class="txt" x="384" y="144">planner</text>
  <rect class="node" x="504" y="56" width="150" height="56"/><text class="txt" x="533" y="90">perception</text>
  <rect class="node" x="504" y="164" width="150" height="56"/><text class="txt" x="520" y="198">page_replan</text>
  <rect class="node" x="688" y="110" width="186" height="56"/><text class="txt" x="711" y="144">data_collection</text>
  <rect class="node" x="908" y="110" width="120" height="56"/><text class="txt" x="924" y="144">init_format</text>
  <rect class="node" x="1062" y="110" width="100" height="56"/><text class="txt" x="1085" y="144">format</text>

  <rect class="node" x="224" y="284" width="170" height="56"/><text class="txt" x="244" y="318">post_process</text>
  <rect class="node" x="436" y="284" width="150" height="56"/><text class="txt" x="467" y="318">validation</text>
  <rect class="node" x="628" y="284" width="130" height="56"/><text class="txt" x="660" y="318">zip_data</text>
  <rect class="node" x="800" y="284" width="108" height="56"/><text class="txt" x="833" y="318">END</text>

  <line class="arrow" x1="152" y1="138" x2="186" y2="138"/>
  <line class="arrow" x1="316" y1="138" x2="350" y2="138"/>
  <line class="arrow" x1="470" y1="138" x2="504" y2="84"/>
  <line class="arrow" x1="470" y1="138" x2="504" y2="192"/>
  <line class="arrow" x1="654" y1="84" x2="688" y2="138"/>
  <line class="arrow" x1="654" y1="192" x2="688" y2="138"/>
  <line class="arrow" x1="874" y1="138" x2="908" y2="138"/>
  <line class="arrow" x1="1028" y1="138" x2="1062" y2="138"/>

  <line class="arrow" x1="1112" y1="166" x2="309" y2="284"/>
  <line class="arrow" x1="394" y1="312" x2="436" y2="312"/>
  <line class="arrow" x1="586" y1="312" x2="628" y2="312"/>
  <line class="arrow" x1="758" y1="312" x2="800" y2="312"/>
</svg>
